<svg width="559" height="166" viewBox="0 0 559 166" fill="none" xmlns="http://www.w3.org/2000/svg">
<path d="M544.862 45.3133H558.574C556.829 50.045 552.947 60.8406 546.929 77.7001C542.427 90.3792 538.66 100.715 535.628 108.709C528.462 127.544 523.408 139.028 520.468 143.163C517.528 147.297 512.475 149.365 505.308 149.365C503.563 149.365 502.207 149.296 501.243 149.158C500.324 149.02 499.176 148.767 497.797 148.4V137.099C499.956 137.696 501.518 138.064 502.483 138.202C503.448 138.339 504.298 138.408 505.033 138.408C507.33 138.408 509.006 138.018 510.063 137.237C511.166 136.502 512.084 135.583 512.819 134.48C513.049 134.113 513.876 132.23 515.3 128.83C516.724 125.431 517.758 122.904 518.401 121.25L491.113 45.3133H505.171L524.947 105.401L544.862 45.3133Z" fill="#001D7B"/>
<path d="M462.108 34.0812C462.292 28.9361 463.187 25.1691 464.795 22.7803C467.689 18.5539 473.271 16.4407 481.54 16.4407C482.321 16.4407 483.125 16.4637 483.952 16.5096C484.779 16.5556 485.72 16.6245 486.777 16.7163V28.0173C485.491 27.9254 484.549 27.8795 483.952 27.8795C483.401 27.8335 482.872 27.8106 482.367 27.8106C478.6 27.8106 476.349 28.7983 475.614 30.7736C474.879 32.7031 474.511 37.6644 474.511 45.6578H486.777V55.4428H474.374V119.114H462.108V55.4428L462.108 45.6578L462.108 34.0812Z" fill="#001D7B"/>
<path d="M438.273 45.6577H450.883V119.114H438.273V45.6577ZM438.273 17.8877H450.883V31.945H438.273V17.8877Z" fill="#001D7B"/>
<path d="M327.273 45.3132H339.538V55.7873C342.478 52.1581 345.143 49.5166 347.532 47.8628C351.62 45.0606 356.26 43.6594 361.451 43.6594C367.331 43.6594 372.063 45.1065 375.646 48.0007C377.668 49.6545 379.505 52.0892 381.159 55.3049C383.915 51.3542 387.154 48.4371 390.875 46.5536C394.596 44.6242 398.776 43.6594 403.416 43.6594C413.339 43.6594 420.092 47.2427 423.675 54.4091C425.605 58.268 426.569 63.4591 426.569 69.9824V119.114H413.684V67.8462C413.684 62.9308 412.443 59.5543 409.963 57.7167C407.528 55.8792 404.542 54.9604 401.005 54.9604C396.135 54.9604 391.932 56.5912 388.394 59.8529C384.903 63.1145 383.157 68.5583 383.157 76.1841V119.114H370.547V70.9471C370.547 65.9398 369.95 62.2876 368.755 59.9907C366.872 56.5453 363.358 54.8226 358.212 54.8226C353.527 54.8226 349.254 56.6372 345.396 60.2663C341.583 63.8955 339.676 70.4647 339.676 79.9741V119.114H327.273V45.3132Z" fill="#001D7B"/>
<path d="M269.328 45.3133V94.307C269.328 98.074 269.925 101.152 271.119 103.541C273.324 107.951 277.436 110.156 283.454 110.156C292.09 110.156 297.97 106.297 301.094 98.5793C302.794 94.4448 303.644 88.7714 303.644 81.559V45.3133H316.047V119.114H304.333L304.471 108.226C302.863 111.029 300.865 113.395 298.476 115.324C293.744 119.183 288.002 121.112 281.249 121.112C270.729 121.112 263.562 117.598 259.749 110.569C257.682 106.802 256.648 101.772 256.648 95.4784V45.3133H269.328Z" fill="#001D7B"/>
<path d="M180.022 17.8877H193.735V107.055H245.003V119.114H180.022V17.8877Z" fill="#001D7B"/>
<path d="M524.973 105.36L518.412 121.271L512.078 103.618L519.89 90.0157L524.973 105.36Z" fill="url(#paint0_linear_35_98)" fill-opacity="0.34"/>
<path d="M62.376 0C83.2083 8.12874e-05 101.689 10.1343 113.023 25.7256C114.642 27.9519 114.264 30.9991 112.317 32.9453C109.503 35.76 104.758 35.0504 102.336 31.8916C93.1929 19.9674 78.7143 12.2501 62.376 12.25C34.6343 12.2503 12.2504 34.4976 12.25 61.8125C12.2501 71.1052 14.8428 79.8102 19.3545 87.2529C21.0925 89.7287 23.5761 92.504 26.2773 94.2939C29.4769 96.4139 31.8055 96.5412 34.0039 95.0996C37.014 93.1255 40.9756 88.7905 45.2246 83.1885C49.3396 77.7632 53.2621 71.7826 56.2754 67.1025L56.4863 66.7871C60.9248 60.4261 70.6768 62.136 72.8115 69.4971L72.9092 69.8584L75.3457 79.6094L127.929 26.0859L117.368 23.0918C115.918 22.6807 114.917 21.3568 114.917 19.8496C114.917 17.9882 116.426 16.4785 118.287 16.4785H144.937C146.088 16.4785 147.022 17.4126 147.022 18.5645V45.2715C147.022 47.1011 145.54 48.5848 143.71 48.585C142.235 48.585 140.937 47.6094 140.527 46.1924L137.075 34.2559L123.259 48.3184C124.234 52.6606 124.751 57.1758 124.751 61.8125C124.751 86.6429 109.996 108.005 88.748 117.844C79.9573 121.914 72.4299 122.508 62.167 122.621C59.5905 122.732 57.4181 122.827 55.3838 123.077C51.8394 123.513 49.7932 124.052 49.793 127.846C49.793 131.975 57.5007 132.365 60.21 132.511C65.9853 132.681 72.7812 133.113 78.2559 134.896C81.0331 135.8 83.9675 137.204 86.2627 139.534C88.7176 142.026 90.1463 145.291 90.1465 149.115C90.1465 153.719 88.3809 157.612 85.001 160.384C81.9426 162.892 78.0318 164.091 74.3193 164.756C66.9929 166.068 57.0756 165.778 47.5977 165.778V153.529C57.9342 153.529 66.2291 153.761 72.1611 152.699C76.9934 151.834 78.2915 147.725 73.002 146.002C69.4191 144.835 65.7635 144.938 60.043 144.763V144.77C54.9884 144.546 49.7072 143.575 45.4834 141.139C40.94 138.518 37.5439 134.076 37.5439 127.846C37.5441 122.737 39.0276 118.264 42.708 115.13C46.0493 112.285 50.3132 111.358 53.8896 110.919C57.4568 110.481 61.8319 110.403 65.5967 110.196C69.6108 109.976 73.592 109.6 77.4844 108.639C77.7041 108.584 77.9243 108.542 78.1436 108.513C82.6761 107.133 87.7706 104.762 91.252 102.331C104.118 93.3487 112.503 78.5299 112.503 61.8125C112.503 60.9808 112.48 60.1538 112.438 59.332L80.3369 92.0088C75.2707 97.1654 66.5135 94.7823 64.7598 87.7695L62.7236 79.625C60.3862 83.1321 57.7401 86.9566 54.9844 90.5898C50.6992 96.2395 45.6512 102.11 40.7197 105.344C32.8848 110.481 25.0016 108.142 19.5127 104.505C15.0308 101.535 11.3865 97.3123 8.99023 93.7969H8.9873C8.97877 93.7829 8.97044 93.7688 8.96191 93.7549C8.51074 93.0913 8.10211 92.4547 7.74316 91.8555L7.82324 91.8066C2.84175 82.9291 8.85039e-05 72.7049 0 61.8125C0.000430321 27.6167 27.9855 0.000306244 62.376 0Z" fill="#001D7B"/>
<defs>
<linearGradient id="paint0_linear_35_98" x1="513.029" y1="104.794" x2="523.317" y2="110.051" gradientUnits="userSpaceOnUse">
<stop stop-color="#1E1E1E" stop-opacity="0"/>
<stop offset="1" stop-color="#1E1E1E" stop-opacity="0.77"/>
</linearGradient>
</defs>
</svg>
