<svg width="280" height="280" viewBox="0 0 280 280" fill="none" xmlns="http://www.w3.org/2000/svg">
<rect width="280" height="280" fill="#000000"/>
<path d="M128.865 57.0973C149.697 57.0974 168.178 67.2316 179.512 82.8229C181.131 85.0491 180.752 88.0964 178.806 90.0426C175.991 92.8572 171.247 92.1476 168.825 88.9889C159.682 77.0647 145.203 69.3464 128.865 69.3463C101.123 69.3466 78.7391 91.5948 78.7388 118.91C78.7389 128.203 81.3315 136.907 85.8433 144.35C87.5813 146.826 90.0649 149.601 92.7661 151.391C95.9656 153.511 98.2943 153.638 100.493 152.197C103.503 150.223 107.464 145.888 111.713 140.286C115.828 134.86 119.751 128.879 122.764 124.199L122.975 123.884C127.414 117.523 137.164 119.233 139.299 126.594L139.398 126.955L141.834 136.707L194.417 83.1832L183.857 80.1891C182.407 79.778 181.406 78.454 181.406 76.9469C181.406 75.0855 182.914 73.5758 184.776 73.5758H211.425C212.577 73.5758 213.511 74.5099 213.511 75.6617V102.369C213.511 104.198 212.028 105.682 210.199 105.682C208.723 105.682 207.426 104.706 207.016 103.289L203.564 91.3531L189.748 105.416C190.723 109.758 191.24 114.273 191.24 118.91C191.24 143.74 176.485 165.102 155.237 174.941C146.446 179.011 138.919 179.605 128.656 179.718C126.079 179.829 123.907 179.924 121.873 180.173C118.328 180.609 116.282 181.149 116.282 184.943C116.282 189.072 123.989 189.462 126.699 189.608C132.474 189.778 139.27 190.21 144.745 191.993C147.522 192.897 150.456 194.301 152.751 196.63C155.207 199.123 156.635 202.388 156.635 206.213C156.635 210.816 154.87 214.709 151.49 217.481C148.431 219.989 144.521 221.188 140.808 221.853C133.482 223.165 123.564 222.876 114.086 222.876V210.627C124.423 210.627 132.718 210.859 138.65 209.797C143.482 208.931 144.78 204.822 139.49 203.099C135.907 201.933 132.252 202.034 126.532 201.859V201.867C121.477 201.643 116.196 200.673 111.972 198.236C107.429 195.615 104.033 191.173 104.033 184.943C104.033 179.834 105.516 175.362 109.197 172.227C112.538 169.382 116.802 168.456 120.378 168.016C123.946 167.578 128.321 167.5 132.085 167.294C136.1 167.073 140.081 166.698 143.973 165.736C144.193 165.682 144.414 165.64 144.633 165.61C149.166 164.231 154.26 161.859 157.741 159.428C170.606 150.446 178.992 135.627 178.992 118.91C178.992 118.078 178.969 117.251 178.927 116.429L146.826 149.106C141.759 154.263 133.001 151.88 131.248 144.867L129.212 136.722C126.875 140.229 124.229 144.054 121.473 147.687C117.188 153.337 112.14 159.206 107.208 162.44C99.3733 167.578 91.4895 165.239 86.0005 161.602C81.5188 158.633 77.8752 154.409 75.479 150.894H75.4761C75.4659 150.878 75.4559 150.861 75.4458 150.844C74.9967 150.184 74.5895 149.55 74.2319 148.953L74.312 148.904C69.3305 140.026 66.4889 129.802 66.4888 118.91C66.4891 84.7138 94.4742 57.0976 128.865 57.0973Z" fill="white"/>
</svg>
