<svg width="148" height="166" viewBox="0 0 148 166" fill="none" xmlns="http://www.w3.org/2000/svg" role="img" aria-label="Lumify">
  <path d="M62.376 0C83.2083 8.12874e-05 101.689 10.1343 113.023 25.7256C114.642 27.9519 114.264 30.9991 112.317 32.9453C109.503 35.76 104.758 35.0504 102.336 31.8916C93.1929 19.9674 78.7143 12.2501 62.376 12.25C34.6343 12.2503 12.2504 34.4976 12.25 61.8125C12.2501 71.1052 14.8428 79.8102 19.3545 87.2529C21.0925 89.7287 23.5761 92.504 26.2773 94.2939C29.4769 96.4139 31.8055 96.5412 34.0039 95.0996C37.014 93.1255 40.9756 88.7905 45.2246 83.1885C49.3396 77.7632 53.2621 71.7826 56.2754 67.1025L56.4863 66.7871C60.9248 60.4261 70.6768 62.136 72.8115 69.4971L72.9092 69.8584L75.3457 79.6094L127.929 26.0859L117.368 23.0918C115.918 22.6807 114.917 21.3568 114.917 19.8496C114.917 17.9882 116.426 16.4785 118.287 16.4785H144.937C146.088 16.4785 147.022 17.4126 147.022 18.5645V45.2715C147.022 47.1011 145.54 48.5848 143.71 48.585C142.235 48.585 140.937 47.6094 140.527 46.1924L137.075 34.2559L123.259 48.3184C124.234 52.6606 124.751 57.1758 124.751 61.8125C124.751 86.6429 109.996 108.005 88.748 117.844C79.9573 121.914 72.4299 122.508 62.167 122.621C59.5905 122.732 57.4181 122.827 55.3838 123.077C51.8394 123.513 49.7932 124.052 49.793 127.846C49.793 131.975 57.5007 132.365 60.21 132.511C65.9853 132.681 72.7812 133.113 78.2559 134.896C81.0331 135.8 83.9675 137.204 86.2627 139.534C88.7176 142.026 90.1463 145.291 90.1465 149.115C90.1465 153.719 88.3809 157.612 85.001 160.384C81.9426 162.892 78.0318 164.091 74.3193 164.756C66.9929 166.068 57.0756 165.778 47.5977 165.778V153.529C57.9342 153.529 66.2291 153.761 72.1611 152.699C76.9934 151.834 78.2915 147.725 73.002 146.002C69.4191 144.835 65.7635 144.938 60.043 144.763V144.77C54.9884 144.546 49.7072 143.575 45.4834 141.139C40.94 138.518 37.5439 134.076 37.5439 127.846C37.5441 122.737 39.0276 118.264 42.708 115.13C46.0493 112.285 50.3132 111.358 53.8896 110.919C57.4568 110.481 61.8319 110.403 65.5967 110.196C69.6108 109.976 73.592 109.6 77.4844 108.639C77.7041 108.584 77.9243 108.542 78.1436 108.513C82.6761 107.133 87.7706 104.762 91.252 102.331C104.118 93.3487 112.503 78.5299 112.503 61.8125C112.503 60.9808 112.48 60.1538 112.438 59.332L80.3369 92.0088C75.2707 97.1654 66.5135 94.7823 64.7598 87.7695L62.7236 79.625C60.3862 83.1321 57.7401 86.9566 54.9844 90.5898C50.6992 96.2395 45.6512 102.11 40.7197 105.344C32.8848 110.481 25.0016 108.142 19.5127 104.505C15.0308 101.535 11.3865 97.3123 8.99023 93.7969H8.9873C8.97877 93.7829 8.97044 93.7688 8.96191 93.7549C8.51074 93.0913 8.10211 92.4547 7.74316 91.8555L7.82324 91.8066C2.84175 82.9291 8.85039e-05 72.7049 0 61.8125C0.000430321 27.6167 27.9855 0.000306244 62.376 0Z" fill="white"/>
</svg>
